<svg xmlns="http://www.w3.org/2000/svg" xmlns:svgjs="http://svgjs.com/svgjs" xmlns:xlink="http://www.w3.org/1999/xlink" width="288" height="288"><svg xmlns="http://www.w3.org/2000/svg" width="288" height="288" enable-background="new 0 0 512 512" viewBox="0 0 512 512"><path fill="#2563eb" d="M256 105.5c-83.9 0-152.2 68.3-152.2 152.2 0 83.9 68.3 152.2 152.2 152.2 83.9 0 152.2-68.3 152.2-152.2 0-84-68.3-152.2-152.2-152.2zm0 263.5c-61.4 0-111.4-50-111.4-111.4 0-61.4 50-111.4 111.4-111.4 61.4 0 111.4 50 111.4 111.4 0 61.4-50 111.4-111.4 111.4zM256 74.8c11.3 0 20.4-9.1 20.4-20.4v-23c0-11.3-9.1-20.4-20.4-20.4-11.3 0-20.4 9.1-20.4 20.4v23c2.84217e-14 11.3 9.1 20.4 20.4 20.4zM256 437.2c-11.3 0-20.4 9.1-20.4 20.4v22.9c0 11.3 9.1 20.4 20.4 20.4 11.3 0 20.4-9.1 20.4-20.4v-22.9c0-11.2-9.1-20.4-20.4-20.4zM480.6 235.6h-23c-11.3 0-20.4 9.1-20.4 20.4 0 11.3 9.1 20.4 20.4 20.4h23c11.3 0 20.4-9.1 20.4-20.4 0-11.3-9.1-20.4-20.4-20.4zM54.4 235.6h-23c-11.3 0-20.4 9.1-20.4 20.4 0 11.3 9.1 20.4 20.4 20.4h22.9c11.3 0 20.4-9.1 20.4-20.4.1-11.3-9.1-20.4-20.3-20.4zM400.4 82.8L384.1 99c-8 8-8 20.9 0 28.9s20.9 8 28.9 0l16.2-16.2c8-8 8-20.9 0-28.9S408.3 74.8 400.4 82.8zM99 384.1l-16.2 16.2c-8 8-8 20.9 0 28.9 8 8 20.9 8 28.9 0l16.2-16.2c8-8 8-20.9 0-28.9s-20.9-7.9-28.9 0zM413 384.1c-8-8-20.9-8-28.9 0-8 8-8 20.9 0 28.9l16.2 16.2c8 8 20.9 8 28.9 0 8-8 8-20.9 0-28.9l-16.2-16.2zM99 127.9c8 8 20.9 8 28.9 0 8-8 8-20.9 0-28.9l-16.2-16.2c-8-8-20.9-8-28.9 0-8 8-8 20.9 0 28.9l16.2 16.2z" class="color000 svgShape"/></svg></svg>